<svg width="132" height="128" viewBox="0 0 132 128" fill="none" xmlns="http://www.w3.org/2000/svg">
    <g clip-path="url(#clip0_640_14308)">
        <path d="M84.1203 29.1592H48.7892C47.9841 29.1602 47.2122 29.4777 46.6429 30.042C46.0736 30.6064 45.7533 31.3715 45.7523 32.1697V110.01L45.3474 110.132L36.6801 112.763C36.2693 112.887 35.8257 112.845 35.4465 112.645C35.0673 112.445 34.7835 112.105 34.6576 111.698L8.87634 28.2179C8.75087 27.8108 8.79364 27.3708 8.99523 26.9949C9.19682 26.6189 9.54074 26.3377 9.95141 26.213L23.3077 22.1589L62.028 10.4102L75.3842 6.35609C75.5875 6.29408 75.8011 6.27241 76.0128 6.29233C76.2245 6.31224 76.4302 6.37334 76.6181 6.47214C76.8059 6.57094 76.9723 6.70549 77.1077 6.8681C77.243 7.03071 77.3447 7.21818 77.4068 7.41978L83.9969 28.7578L84.1203 29.1592Z" fill="#E7E7E7"/>
        <path d="M91.8297 28.7577L83.8872 3.04047C83.7551 2.61197 83.5391 2.21348 83.2515 1.86778C82.9639 1.52207 82.6105 1.23593 82.2113 1.02569C81.8122 0.815452 81.3751 0.685241 80.9252 0.642503C80.4752 0.599765 80.0212 0.645337 79.589 0.776611L60.8109 6.47438L22.0927 18.2252L3.31455 23.9249C2.44222 24.1905 1.7118 24.7882 1.28363 25.5871C0.855455 26.3859 0.764506 27.3205 1.03075 28.1857L28.1765 116.077C28.3928 116.775 28.8292 117.386 29.4217 117.821C30.0142 118.256 30.7315 118.49 31.4686 118.491C31.8097 118.491 32.1488 118.44 32.4747 118.341L45.3471 114.435L45.752 114.311V113.891L45.3471 114.014L32.3553 117.957C31.5853 118.19 30.7537 118.11 30.0428 117.736C29.3319 117.362 28.7998 116.723 28.5632 115.96L1.41955 28.0673C1.30235 27.6894 1.2615 27.2922 1.29934 26.8986C1.33719 26.505 1.45298 26.1227 1.64009 25.7735C1.82721 25.4244 2.08198 25.1152 2.3898 24.8638C2.69761 24.6123 3.05244 24.4236 3.43396 24.3083L22.2121 18.6085L60.9304 6.85972L79.7085 1.15994C79.9979 1.0724 80.2988 1.02776 80.6013 1.02748C81.2506 1.02893 81.8824 1.23644 82.4041 1.61962C82.9259 2.00281 83.3101 2.54153 83.5006 3.15687L91.4066 28.7577L91.5321 29.1591H91.9533L91.8297 28.7577Z" fill="#ACACAC"/>
        <path d="M25.7182 26.2784C25.328 26.2781 24.9481 26.1539 24.6343 25.9239C24.3206 25.694 24.0894 25.3704 23.9747 25.0006L21.367 16.557C21.2969 16.3302 21.2726 16.0919 21.2954 15.8558C21.3183 15.6196 21.3878 15.3903 21.5 15.1808C21.6123 14.9713 21.7651 14.7858 21.9497 14.6349C22.1343 14.4839 22.3471 14.3705 22.5759 14.3011L58.1964 3.49083C58.6585 3.35105 59.1576 3.39873 59.5843 3.62339C60.011 3.84804 60.3303 4.23133 60.4722 4.68913L63.0799 13.1329C63.2209 13.5909 63.1727 14.0857 62.9461 14.5086C62.7195 14.9316 62.3329 15.2481 61.8711 15.3889L26.2505 26.1991C26.078 26.2516 25.8986 26.2783 25.7182 26.2784Z" fill="#BABABA"/>
        <path d="M39.3783 9.647C41.6146 9.647 43.4275 7.8499 43.4275 5.63307C43.4275 3.41624 41.6146 1.61914 39.3783 1.61914C37.142 1.61914 35.3291 3.41624 35.3291 5.63307C35.3291 7.8499 37.142 9.647 39.3783 9.647Z" fill="#BABABA"/>
        <path d="M39.3785 8.17528C40.7946 8.17528 41.9426 7.03731 41.9426 5.63354C41.9426 4.22977 40.7946 3.0918 39.3785 3.0918C37.9624 3.0918 36.8145 4.22977 36.8145 5.63354C36.8145 7.03731 37.9624 8.17528 39.3785 8.17528Z" fill="white"/>
        <path d="M122.889 117.465H54.4582C54.002 117.465 53.5645 117.285 53.2419 116.965C52.9193 116.645 52.7378 116.212 52.7373 115.759V34.4774C52.7378 34.0251 52.9193 33.5915 53.2419 33.2717C53.5645 32.9519 54.002 32.772 54.4582 32.7715H122.889C123.346 32.772 123.783 32.9519 124.106 33.2717C124.428 33.5915 124.61 34.0251 124.61 34.4774V115.759C124.61 116.212 124.428 116.645 124.106 116.965C123.783 117.285 123.346 117.465 122.889 117.465Z" fill="#D6D6D6"/>
        <path d="M91.4072 28.7578H48.7895C47.877 28.7591 47.0024 29.119 46.3572 29.7585C45.712 30.3981 45.3489 31.2652 45.3477 32.1697V114.014L45.7526 113.891V32.1697C45.7536 31.3715 46.0738 30.6064 46.6431 30.042C47.2125 29.4777 47.9843 29.1602 48.7895 29.1592H91.5327L91.4072 28.7578ZM128.558 28.7578H48.7895C47.877 28.7591 47.0024 29.119 46.3572 29.7585C45.712 30.3981 45.3489 31.2652 45.3477 32.1697V124.089C45.3489 124.993 45.712 125.86 46.3572 126.5C47.0024 127.139 47.877 127.499 48.7895 127.5H128.558C129.471 127.499 130.346 127.139 130.991 126.5C131.636 125.86 131.999 124.993 132 124.089V32.1697C131.999 31.2652 131.636 30.3981 130.991 29.7585C130.346 29.119 129.471 28.7591 128.558 28.7578ZM131.595 124.089C131.594 124.887 131.274 125.652 130.705 126.216C130.135 126.781 129.364 127.098 128.558 127.099H48.7895C47.9843 127.098 47.2125 126.781 46.6431 126.216C46.0738 125.652 45.7536 124.887 45.7526 124.089V32.1697C45.7536 31.3715 46.0738 30.6064 46.6431 30.042C47.2125 29.4777 47.9843 29.1602 48.7895 29.1592H128.558C129.364 29.1602 130.135 29.4777 130.705 30.042C131.274 30.6064 131.594 31.3715 131.595 32.1697V124.089Z" fill="#ACACAC"/>
        <path d="M107.3 37.5877H70.0477C69.5646 37.5872 69.1015 37.3967 68.7599 37.0581C68.4183 36.7194 68.2261 36.2603 68.2256 35.7814V26.9508C68.2261 26.4719 68.4183 26.0128 68.7599 25.6742C69.1015 25.3355 69.5646 25.1451 70.0477 25.1445H107.3C107.783 25.1451 108.246 25.3355 108.588 25.6742C108.93 26.0128 109.122 26.4719 109.122 26.9508V35.7814C109.122 36.2603 108.93 36.7194 108.588 37.0581C108.246 37.3967 107.783 37.5872 107.3 37.5877Z" fill="#BABABA"/>
        <path d="M88.6732 25.7466C90.9095 25.7466 92.7224 23.9495 92.7224 21.7327C92.7224 19.5158 90.9095 17.7188 88.6732 17.7188C86.4369 17.7188 84.624 19.5158 84.624 21.7327C84.624 23.9495 86.4369 25.7466 88.6732 25.7466Z" fill="#BABABA"/>
        <path d="M88.6734 24.1788C90.0355 24.1788 91.1397 23.0842 91.1397 21.7339C91.1397 20.3837 90.0355 19.2891 88.6734 19.2891C87.3112 19.2891 86.207 20.3837 86.207 21.7339C86.207 23.0842 87.3112 24.1788 88.6734 24.1788Z" fill="white"/>
    </g>
    <defs>
        <clipPath id="clip0_640_14308">
            <rect width="131.12" height="126.875" fill="white" transform="translate(0.879883 0.625)"/>
        </clipPath>
    </defs>
</svg>
